<?xml version="1.0" encoding="utf-8"?>
<!-- Generator: Adobe Illustrator 28.4.1, SVG Export Plug-In . SVG Version: 6.00 Build 0)  -->
<svg version="1.1" id="Layer_1" xmlns="http://www.w3.org/2000/svg" xmlns:xlink="http://www.w3.org/1999/xlink" x="0px" y="0px"
	 viewBox="0 0 356.94 170.04" style="enable-background:new 0 0 356.94 170.04;" xml:space="preserve">
<style type="text/css">
	.st0{fill:#2B2B2B;}
	.st1{display:none;}
	.st2{font-family:'MVBoli';}
	.st3{font-size:116.865px;}
</style>
<g>
	<path class="st0" d="M107.02,82.65c-6.31,0.89-13.85,2.97-19.89,4.68c-1.38,0.39-2.83,0.85-3.72,1.77c-1.1,1.14-1.08,2.7-1.01,4.13
		c0.36,7.35,0.71,14.7,1.07,22.05c0.13,2.7-0.8,6.36-4.22,6.42c-3.44,0.07-4.56-3.55-4.9-6.25c-1-8.1-5-15.96-11.4-22.35
		c-0.58-0.58-1.45-0.96-2.38-0.98c-2.47-0.05-3.07,2.17-3.14,3.89c-0.7,15.49-0.57,31.01,0.37,46.5c0.16,2.61,0.35,5.24,1.19,7.77
		c1.06,3.17,3.16,6.15,3.38,9.42c0.14,2.04-2.89,8.9-6.77,6.29c-1.77-1.19-1.42-4.38-1.63-6.03c-0.31-2.45-0.58-4.91-0.81-7.36
		c-0.92-9.84-1.25-19.7-1.28-29.56c-0.03-9.77,0.22-19.55,0.48-29.32c-1.73,1.21-4.27,2.77-7.65,4.16
		c-3.23,1.32-11.54,4.73-20.69,3.21C14.5,99.5,4.78,92.69,3.37,83.08C2.12,74.54,7.7,65.69,17.1,62.33
		c12.25-4.39,29.7,0.99,36.44,13.95c1.13-25.17,0.63-46.71-1.19-71.86c3.51,0.17,4.66,3.75,4.86,6.52
		c1.36,19.04,2.73,38.15,0.88,57.17c-0.47,4.85-1.05,10.08,2.14,14.24c3.18,4.16,11.87,5.88,15.37,1.87
		c1.34-1.54,1.59-3.49,1.8-5.35c0.69-6.09,1.37-12.17,2.06-18.26c1.04-9.24,2.07-18.66-0.47-27.73c-0.55-1.95-1.26-3.95-0.54-5.93
		c0.33-0.91,1.01-1.75,2.01-2.28c2.73-1.48,5.69,0.15,6.71,2.17c0.81,1.59,0.69,3.37,0.55,5.08c-1.33,17.21-2.65,34.42-3.98,51.64
		l32.4-3.93c-1.93,0.79-3.86,1.58-5.79,2.36 M49.39,88.47c4.5-7.68-14.31-26.24-27.28-23.33C12.94,67.2,6.08,80.12,11.74,87.93
		C19.19,98.21,45.3,95.44,49.39,88.47 M75.83,97.58c0.25-0.04,0.23-0.03,0.48-0.07c0.33-2.65,0.49-5.31-0.12-8.07
		c-1.68,0.4-3.16,0.75-4.66,1.11C73.03,93.01,74.43,95.29,75.83,97.58"/>
	<path class="st0" d="M85.92,12.29c0.02,0.24,0.14,1.69-1.21,2.73c-1.25,0.96-2.89,0.9-3.84,0.87c-0.84-0.03-2.11-0.07-3.2-0.83
		c-1.34-0.93-0.74-2.46-0.74-2.79c-0.03-1.44,0.36-2.19,0.71-2.47c0.33-0.27,1.58-1.19,3.46-1.16c2.02,0.04,3.25,1.16,3.58,1.46
		C85.02,10.42,85.8,11.16,85.92,12.29"/>
</g>
<text transform="matrix(1 0 0 1 102.1774 142.7133)" class="st1 st2 st3">itesh</text>
<g>
	<path class="st0" d="M101.46,123.35c0.57-2.21,1.26-4.77,2.05-7.7c0.8-2.93,1.65-6.03,2.54-9.3c0.89-3.27,1.8-6.62,2.71-10.04
		c0.91-3.42,1.77-6.75,2.57-9.99c0.04-0.15,0.17-0.41,0.4-0.77c0.23-0.36,0.55-0.72,0.97-1.08c0.42-0.36,0.95-0.67,1.6-0.94
		c0.65-0.27,1.41-0.4,2.28-0.4c0.65,0,1.27,0.07,1.88,0.2c0.61,0.13,1.15,0.33,1.63,0.6c0.48,0.27,0.86,0.62,1.14,1.06
		c0.29,0.44,0.43,0.94,0.43,1.51c0,0.11,0,0.24,0,0.37c0,0.13-0.02,0.26-0.06,0.37l-1.6,6.05c-1.79,6.77-3.6,13.56-5.45,20.37
		c-1.85,6.81-3.64,13.64-5.39,20.49c-0.08,0.23-0.19,0.51-0.34,0.86c-0.15,0.34-0.36,0.68-0.63,1.03c-0.27,0.34-0.59,0.63-0.97,0.86
		c-0.38,0.23-0.84,0.34-1.37,0.34c-0.99,0-1.86-0.2-2.62-0.6c-0.76-0.4-1.41-0.9-1.94-1.51c-0.53-0.61-0.93-1.28-1.2-2
		c-0.27-0.72-0.4-1.41-0.4-2.05c0-0.19,0-0.36,0-0.51c0-0.15,0.04-0.32,0.11-0.51L101.46,123.35z M116.36,64.28
		c0.19-0.8,0.53-1.77,1.03-2.91c0.49-1.14,1.37-2.17,2.62-3.08c0.61-0.34,1.35-0.66,2.23-0.94c0.87-0.29,1.5-0.43,1.88-0.43
		c0.38,0,0.77,0.13,1.17,0.4c0.4,0.27,0.75,0.55,1.06,0.86c0.38,0.38,0.74,0.8,1.08,1.26c0.95,0.08,1.57,0.42,1.85,1.03
		c0.29,0.61,0.43,1.33,0.43,2.17c0,0.61-0.06,1.16-0.17,1.65c-0.11,0.5-0.21,0.89-0.29,1.2c-0.23,0.8-0.67,1.53-1.31,2.2
		c-0.65,0.67-1.39,1.24-2.23,1.71c-0.84,0.48-1.71,0.85-2.62,1.11c-0.91,0.27-1.71,0.4-2.4,0.4c-0.88,0-1.55-0.15-2.03-0.46
		c-0.48-0.3-1.08-0.95-1.8-1.94c-0.42-0.57-0.66-1.02-0.71-1.34c-0.06-0.32-0.09-0.6-0.09-0.83c0-0.42,0.03-0.79,0.09-1.11
		C116.21,64.9,116.28,64.59,116.36,64.28z"/>
	<path class="st0" d="M139.3,116.04c0-3.2,0.36-6.51,1.08-9.96c0.72-3.44,1.48-6.74,2.28-9.9c-0.99-0.04-2-0.19-3.02-0.46
		c-1.03-0.27-1.96-0.63-2.8-1.08c-0.84-0.46-1.52-1.02-2.05-1.68c-0.53-0.67-0.8-1.44-0.8-2.31c0-0.34,0.08-0.78,0.23-1.31
		c0.15-0.53,0.37-1.06,0.66-1.57c0.29-0.51,0.66-0.95,1.11-1.31c0.46-0.36,0.97-0.54,1.54-0.54h7.65c0.72,0,1.22-0.31,1.48-0.94
		c0.27-0.63,0.48-1.25,0.63-1.85c0.49-2.21,0.96-4.12,1.4-5.74c0.44-1.62,0.81-2.99,1.11-4.11c0.3-1.12,0.54-2.03,0.71-2.74
		c0.17-0.7,0.26-1.26,0.26-1.68c0-0.49-0.02-0.97-0.06-1.43c-0.04-0.46-0.06-1.08-0.06-1.88v-0.57c0-0.3,0.03-0.7,0.09-1.2
		c0.06-0.49,0.24-1.2,0.54-2.11c0.23-0.72,0.65-1.41,1.26-2.05c0.61-0.65,1.5-0.97,2.68-0.97c1.03,0,1.9,0.21,2.62,0.63
		c0.72,0.42,1.31,0.97,1.77,1.65c0.46,0.69,0.8,1.47,1.03,2.34c0.23,0.88,0.34,1.75,0.34,2.62c0,0.95-0.1,1.81-0.29,2.57
		l-4.17,15.98c2.05-0.34,3.88-0.67,5.48-0.97c1.6-0.3,3.2-0.61,4.79-0.91c1.75-0.34,3.26-0.67,4.54-0.97
		c1.27-0.3,2.37-0.56,3.28-0.77c0.91-0.21,1.68-0.38,2.31-0.51c0.63-0.13,1.15-0.2,1.57-0.2c0.61,0,1.23,0.05,1.85,0.14
		c0.63,0.1,1.18,0.26,1.65,0.49c0.48,0.23,0.86,0.55,1.17,0.97c0.3,0.42,0.46,0.97,0.46,1.66c0,0.91-0.18,1.72-0.54,2.42
		c-0.36,0.7-0.83,1.31-1.4,1.83s-1.22,0.93-1.94,1.25c-0.72,0.32-1.45,0.56-2.17,0.71c-0.61,0.11-1.4,0.29-2.37,0.51
		c-0.97,0.23-2.04,0.48-3.2,0.74c-1.16,0.27-2.37,0.55-3.62,0.86s-2.47,0.61-3.65,0.91c-1.75,0.46-3.24,0.84-4.48,1.14
		c-1.24,0.31-2.29,0.53-3.17,0.69c-0.88,0.15-1.59,0.27-2.14,0.34c-0.55,0.08-1,0.11-1.34,0.11c-0.72,2.17-1.35,4.3-1.88,6.39
		c-0.53,2.09-0.98,4.04-1.34,5.85c-0.36,1.81-0.63,3.42-0.8,4.85c-0.17,1.43-0.26,2.54-0.26,3.34c0,1.03,0.09,2.01,0.29,2.94
		c0.19,0.93,0.51,1.74,0.97,2.43c0.46,0.68,1.07,1.23,1.85,1.63c0.78,0.4,1.76,0.6,2.94,0.6c2.02,0,3.99-0.55,5.93-1.65
		c1.94-1.1,3.79-2.5,5.56-4.19c1.77-1.69,3.44-3.55,5.02-5.56c1.58-2.02,3.03-3.94,4.37-5.76c0.46-0.68,1.05-1.03,1.77-1.03
		c0.23,0,0.5,0.04,0.83,0.11c0.32,0.08,0.64,0.21,0.94,0.4c0.3,0.19,0.56,0.44,0.77,0.74c0.21,0.3,0.31,0.67,0.31,1.08
		c0,0.3-0.02,0.53-0.06,0.68c-0.61,2.36-1.55,4.73-2.82,7.1c-1.27,2.38-2.58,4.76-3.91,7.16c-0.46,0.84-1.06,1.66-1.8,2.45
		c-0.74,0.8-1.55,1.57-2.43,2.31c-0.88,0.74-1.79,1.45-2.74,2.11c-0.95,0.67-1.85,1.26-2.68,1.8c-1.45,0.91-3.02,1.54-4.74,1.88
		c-1.71,0.34-3.37,0.51-4.96,0.51c-2.47,0-4.67-0.45-6.59-1.34c-1.92-0.89-3.54-2.11-4.85-3.65c-1.31-1.54-2.31-3.34-3-5.39
		C139.64,120.61,139.3,118.4,139.3,116.04z"/>
	<path class="st0" d="M192.02,111.76c0-1.63,0.44-3.02,1.31-4.17c0.88-1.14,2.03-1.9,3.48-2.28c0.42-0.84,1.06-1.97,1.94-3.4
		c0.87-1.43,1.96-2.98,3.25-4.65c1.29-1.67,2.77-3.36,4.42-5.05c1.65-1.69,3.48-3.23,5.48-4.62s4.15-2.52,6.45-3.4
		c2.3-0.88,4.75-1.31,7.33-1.31c2.21,0,4.13,0.27,5.76,0.8c1.64,0.53,2.99,1.28,4.05,2.23c1.06,0.95,1.86,2.08,2.4,3.4
		c0.53,1.31,0.8,2.73,0.8,4.25c0,1.29-0.17,2.53-0.51,3.71c-0.53,2.13-1.52,3.99-2.97,5.59c-1.45,1.6-3.15,3-5.11,4.19
		c-1.96,1.2-4.09,2.2-6.39,3c-2.3,0.8-4.6,1.46-6.9,2c-2.3,0.53-4.52,0.94-6.65,1.23c-2.13,0.29-3.98,0.5-5.54,0.66
		c-0.34,0.69-0.64,1.55-0.88,2.6c-0.25,1.05-0.37,2.06-0.37,3.05c0,2.21,0.87,3.92,2.62,5.14c1.75,1.22,4.17,1.83,7.25,1.83
		c1.79,0,3.5-0.2,5.14-0.6c1.64-0.4,3.19-0.91,4.65-1.54c1.46-0.63,2.84-1.31,4.14-2.05c1.29-0.74,2.47-1.47,3.54-2.2
		c1.37-0.91,2.67-1.68,3.91-2.31s2.33-0.94,3.28-0.94c0.95,0,1.56,0.24,1.83,0.71c0.27,0.48,0.4,0.98,0.4,1.51
		c0,0.3-0.01,0.6-0.03,0.88c-0.02,0.29-0.05,0.52-0.09,0.71c-0.19,0.99-0.57,1.98-1.14,2.97c-0.57,0.99-1.29,1.85-2.17,2.57
		c-3.96,3.12-8.02,5.34-12.18,6.68c-4.17,1.33-8.61,2-13.32,2c-0.91,0-1.99-0.06-3.22-0.17c-1.24-0.11-2.52-0.34-3.85-0.68
		c-1.33-0.34-2.64-0.84-3.94-1.48c-1.29-0.65-2.44-1.5-3.45-2.57c-1.01-1.06-1.83-2.38-2.45-3.94c-0.63-1.56-0.94-3.44-0.94-5.65
		c0-1.79,0.25-3.79,0.74-5.99c-0.5-0.08-0.96-0.33-1.4-0.77C192.24,113.24,192.02,112.6,192.02,111.76z M227.74,95.95
		c0.08-0.19,0.11-0.36,0.11-0.51c0-0.15,0-0.32,0-0.51c0-1.03-0.38-1.8-1.14-2.31c-0.76-0.51-1.67-0.77-2.74-0.77
		c-1.67,0-3.32,0.44-4.94,1.31c-1.62,0.88-3.14,1.97-4.56,3.28c-1.43,1.31-2.69,2.72-3.79,4.22c-1.1,1.5-1.96,2.86-2.57,4.08
		c2.74-0.23,5.25-0.6,7.53-1.11c2.28-0.51,4.27-1.16,5.96-1.94c1.69-0.78,3.06-1.66,4.11-2.62
		C226.76,98.09,227.44,97.06,227.74,95.95z"/>
	<path class="st0" d="M251.94,123.69c0.3,0,0.58,0.04,0.83,0.11c0.25,0.08,0.52,0.16,0.83,0.26c0.3,0.1,0.65,0.18,1.03,0.26
		c0.38,0.08,0.87,0.11,1.48,0.11c1.79,0,3.77-0.19,5.96-0.57c2.19-0.38,4.25-0.88,6.19-1.48c1.94-0.61,3.6-1.3,4.99-2.08
		c1.39-0.78,2.18-1.59,2.37-2.43c0.11-0.46,0.17-0.86,0.17-1.2c0-0.65-0.31-1.26-0.94-1.85c-0.63-0.59-1.42-1.15-2.37-1.68
		c-0.95-0.53-1.98-1.03-3.08-1.48c-1.1-0.46-2.13-0.87-3.08-1.25l-1.94-0.8c-0.99-0.38-1.96-0.85-2.91-1.4
		c-0.95-0.55-1.84-1.19-2.65-1.91c-0.82-0.72-1.54-1.57-2.17-2.54c-0.63-0.97-1.09-2.08-1.4-3.34c-0.15-0.53-0.28-1.06-0.37-1.6
		c-0.1-0.53-0.14-1.1-0.14-1.71c0-0.99,0.33-2.12,1-3.4c0.67-1.27,1.56-2.54,2.68-3.79c1.12-1.25,2.4-2.45,3.82-3.59
		c1.43-1.14,2.92-2.09,4.48-2.85c1.14-0.8,2.24-1.52,3.31-2.17c1.06-0.65,2.14-1.2,3.22-1.65c1.08-0.46,2.19-0.82,3.31-1.08
		c1.12-0.27,2.31-0.4,3.57-0.4c1.14,0,2.38,0.06,3.71,0.17c1.33,0.11,2.55,0.38,3.65,0.8c1.1,0.42,2.03,1.04,2.77,1.85
		c0.74,0.82,1.11,1.91,1.11,3.28c0,0.42-0.06,0.97-0.17,1.65s-0.31,1.37-0.57,2.05c-0.27,0.68-0.59,1.27-0.97,1.77
		c-0.38,0.5-0.84,0.74-1.37,0.74c-0.88,0-1.6-0.17-2.17-0.51c-0.57-0.34-1.08-0.71-1.54-1.11c-0.46-0.4-0.93-0.77-1.43-1.11
		c-0.5-0.34-1.1-0.51-1.83-0.51c-0.88,0-1.89,0.16-3.05,0.49c-1.16,0.32-2.35,0.76-3.57,1.31c-1.22,0.55-2.41,1.19-3.57,1.91
		c-1.16,0.72-2.21,1.46-3.14,2.23c-0.93,0.76-1.68,1.51-2.25,2.25c-0.57,0.74-0.86,1.42-0.86,2.03c0,0.65,0.21,1.18,0.63,1.6
		c0.42,0.42,0.95,0.78,1.6,1.08c0.84,0.46,1.8,0.91,2.88,1.37c1.08,0.46,2.18,0.91,3.28,1.37c1.1,0.46,2.18,0.91,3.22,1.37
		c1.05,0.46,1.95,0.88,2.71,1.25c1.03,0.53,1.95,1.06,2.77,1.57c0.82,0.51,1.51,1.08,2.08,1.68c0.57,0.61,1.01,1.29,1.31,2.05
		c0.3,0.76,0.46,1.65,0.46,2.68c0,0.5-0.04,0.99-0.11,1.48c-0.08,0.5-0.19,1.07-0.34,1.71c-0.11,0.57-0.31,1.24-0.6,2
		c-0.29,0.76-0.59,1.51-0.91,2.25c-0.32,0.74-0.66,1.41-1,2c-0.34,0.59-0.63,0.98-0.86,1.17c-1.48,1.37-3.23,2.65-5.25,3.85
		s-4.12,2.25-6.31,3.14c-2.19,0.89-4.38,1.61-6.56,2.14c-2.19,0.53-4.19,0.8-6.02,0.8c-0.91,0-1.92-0.18-3.02-0.54
		c-1.1-0.36-2.12-0.84-3.05-1.43c-0.93-0.59-1.71-1.26-2.34-2.03c-0.63-0.76-0.94-1.52-0.94-2.28c0-0.38,0.11-0.81,0.34-1.28
		c0.23-0.47,0.51-0.91,0.86-1.31c0.34-0.4,0.71-0.74,1.11-1.03S251.6,123.69,251.94,123.69z"/>
	<path class="st0" d="M338.28,137.04c-2.36,0-3.98-0.51-4.85-1.54s-1.31-2.43-1.31-4.22c0-0.95,0.09-1.98,0.29-3.08
		c0.19-1.1,0.44-2.24,0.74-3.42c0.53-2.02,1.13-4.02,1.8-6.02c0.67-2,1.33-4.01,2-6.05c0.67-2.03,1.31-4.07,1.94-6.11
		s1.19-4.08,1.68-6.13c0.04-0.19,0.06-0.44,0.06-0.74c0-0.53-0.13-0.95-0.4-1.26c-0.27-0.3-0.67-0.46-1.2-0.46
		c-0.84,0-1.74,0.17-2.71,0.51c-0.97,0.34-1.78,0.72-2.42,1.14c-2.55,1.71-4.78,3.41-6.71,5.08s-3.68,3.42-5.28,5.25
		c-1.6,1.83-3.11,3.78-4.54,5.85c-1.43,2.07-2.92,4.35-4.48,6.82c-1.33,2.47-2.32,4.57-2.97,6.3c-0.65,1.73-1.25,3.13-1.8,4.19
		c-0.55,1.06-1.17,1.83-1.85,2.31c-0.69,0.47-1.71,0.71-3.08,0.71c-1.52,0-2.6-0.44-3.22-1.31s-0.94-2.02-0.94-3.42
		c0-1.1,0.17-2.34,0.51-3.71l18.83-75.44c0.11-0.46,0.3-0.95,0.57-1.48c0.27-0.53,0.63-1.03,1.08-1.48c0.46-0.46,1-0.84,1.63-1.14
		c0.63-0.3,1.34-0.46,2.14-0.46c0.61,0,1.26,0.03,1.94,0.09s1.3,0.17,1.85,0.34c0.55,0.17,1.01,0.45,1.37,0.83
		c0.36,0.38,0.54,0.88,0.54,1.48c0,0.15-0.04,0.47-0.11,0.94c-0.08,0.48-0.19,1.02-0.34,1.63c-2.05,8.26-4.25,16.85-6.59,25.79
		c-2.34,8.94-4.71,17.98-7.1,27.11c2.32-2.85,4.74-5.47,7.25-7.85c2.51-2.38,5.09-4.42,7.73-6.13c2.64-1.71,5.38-3.05,8.22-4.02
		c2.83-0.97,5.77-1.46,8.82-1.46c1.94,0,3.44,0.62,4.51,1.86c1.06,1.24,1.6,2.81,1.6,4.71c0,0.88-0.11,1.73-0.34,2.57
		c-0.46,1.75-0.97,3.47-1.54,5.16c-0.57,1.69-1.16,3.4-1.77,5.11c-0.61,1.71-1.22,3.45-1.83,5.22c-0.61,1.77-1.14,3.59-1.6,5.45
		c-0.61,2.4-1.03,4.67-1.26,6.82c-0.23,2.15-0.38,3.87-0.46,5.16c-0.08,1.1-0.25,2.17-0.51,3.2c-0.27,1.03-0.66,1.93-1.17,2.71
		s-1.16,1.41-1.94,1.88C340.26,136.8,339.34,137.04,338.28,137.04z"/>
</g>
</svg>
